<svg width="20" height="20" viewBox="0 0 20 20" fill="none" xmlns="http://www.w3.org/2000/svg">
<g clip-path="url(#clip0_501_6149)">
<path d="M20 10C20 15.5228 15.5228 20 10 20C4.47719 20 0 15.5228 0 10C0 10.0023 10 0.00113281 10 0C15.5228 0 20 4.47719 20 10Z" fill="#0052B4"/>
<path d="M9.97314 10.0003H9.99996C9.99996 9.99124 9.99996 9.98255 9.99996 9.97351C9.99103 9.98247 9.98211 9.99139 9.97314 10.0003Z" fill="#F0F0F0"/>
<path d="M9.99975 5.21824C9.99975 3.45867 9.99975 2.30566 9.99975 0.000854492H9.99807C4.476 0.00175293 -0.000244141 4.47851 -0.000244141 10.0008H5.21714V7.06285L8.1551 10.0008H9.97303C9.98198 9.99191 9.99088 9.983 9.99979 9.97406C9.99979 9.30035 9.99979 8.69921 9.99979 8.15624L7.06178 5.21824H9.99975Z" fill="#F0F0F0"/>
<path d="M5.05929 1.30481C3.49526 2.1954 2.19503 3.49563 1.30444 5.05965V10.0005H3.91315V3.91356V3.91352H10.0001C10.0001 3.09075 10.0001 2.30692 10.0001 1.30481H5.05929V1.30481Z" fill="#D80027"/>
<path d="M10.0003 8.77085L6.4475 5.21803H5.21777C5.21777 5.218 5.21777 5.21803 5.21777 5.21803L10.0003 10.0006H10.0003C10.0003 10.0006 10.0003 9.15273 10.0003 8.77085Z" fill="#D80027"/>
<path d="M6.03132 11.7388L6.58015 12.8863L7.81948 12.5999L7.26448 13.7445L8.26112 14.5349L7.02022 14.8146L7.0237 16.0866L6.03132 15.2908L5.03897 16.0866L5.04245 14.8146L3.80151 14.5349L4.79819 13.7445L4.24312 12.5999L5.48253 12.8863L6.03132 11.7388Z" fill="#F0F0F0"/>
<path d="M14.9725 13.9128L15.247 14.4866L15.8666 14.3434L15.5891 14.9157L16.0875 15.3109L15.467 15.4507L15.4687 16.0867L14.9725 15.6888L14.4764 16.0867L14.4781 15.4507L13.8577 15.3109L14.356 14.9157L14.0785 14.3434L14.6981 14.4866L14.9725 13.9128Z" fill="#F0F0F0"/>
<path d="M12.4195 7.82617L12.6939 8.4L13.3135 8.25672L13.036 8.82902L13.5344 9.22422L12.9139 9.36406L12.9156 10.0001L12.4195 9.60215L11.9233 10.0001L11.925 9.36406L11.3046 9.22422L11.8029 8.82902L11.5254 8.25672L12.1451 8.4L12.4195 7.82617Z" fill="#F0F0F0"/>
<path d="M14.9725 4.34802L15.247 4.92185L15.8666 4.77861L15.5891 5.35091L16.0874 5.74607L15.467 5.88595L15.4687 6.52197L14.9725 6.12404L14.4764 6.52197L14.4781 5.88595L13.8577 5.74607L14.3559 5.35091L14.0785 4.77861L14.6981 4.92185L14.9725 4.34802Z" fill="#F0F0F0"/>
<path d="M17.2018 6.95654L17.4762 7.53037L18.0959 7.38709L17.8184 7.95939L18.3167 8.35459L17.6962 8.49447L17.698 9.13045L17.2018 8.73256L16.7057 9.13045L16.7073 8.49447L16.0869 8.35459L16.5852 7.95939L16.3077 7.38709L16.9274 7.53037L17.2018 6.95654Z" fill="#F0F0F0"/>
<path d="M15.6077 10.0002L15.8235 10.6645H16.522L15.9569 11.0751L16.1728 11.7394L15.6077 11.3288L15.0426 11.7394L15.2584 11.0751L14.6934 10.6645H15.3918L15.6077 10.0002Z" fill="#F0F0F0"/>
</g>
<defs>
<clipPath id="clip0_501_6149">
<rect width="20" height="20" fill="white"/>
</clipPath>
</defs>
</svg>