<svg width="20" height="16" viewBox="0 0 20 16" fill="none" xmlns="http://www.w3.org/2000/svg">
<path d="M1.66666 3.83331L8.47076 8.59618C9.02173 8.98187 9.29722 9.17471 9.59688 9.2494C9.86157 9.31538 10.1384 9.31538 10.4031 9.2494C10.7028 9.17471 10.9782 8.98187 11.5292 8.59618L18.3333 3.83331M5.66666 14.6666H14.3333C15.7335 14.6666 16.4335 14.6666 16.9683 14.3942C17.4387 14.1545 17.8212 13.772 18.0608 13.3016C18.3333 12.7668 18.3333 12.0668 18.3333 10.6666V5.33331C18.3333 3.93318 18.3333 3.23312 18.0608 2.69834C17.8212 2.22793 17.4387 1.84548 16.9683 1.6058C16.4335 1.33331 15.7335 1.33331 14.3333 1.33331H5.66666C4.26653 1.33331 3.56646 1.33331 3.03168 1.6058C2.56128 1.84548 2.17882 2.22793 1.93914 2.69834C1.66666 3.23312 1.66666 3.93318 1.66666 5.33331V10.6666C1.66666 12.0668 1.66666 12.7668 1.93914 13.3016C2.17882 13.772 2.56128 14.1545 3.03168 14.3942C3.56646 14.6666 4.26653 14.6666 5.66666 14.6666Z" stroke="#667085" stroke-width="1.66667" stroke-linecap="round" stroke-linejoin="round"/>
</svg>