<svg width="28" height="28" viewBox="0 0 28 28" fill="none" xmlns="http://www.w3.org/2000/svg">
<path d="M7.21875 12.6875C6.4925 12.6875 5.90625 13.2738 5.90625 14C5.90625 14.7262 6.4925 15.3125 7.21875 15.3125C7.945 15.3125 8.53125 14.7262 8.53125 14C8.53125 13.2738 7.945 12.6875 7.21875 12.6875ZM7.21875 7.4375C6.4925 7.4375 5.90625 8.02375 5.90625 8.75C5.90625 9.47625 6.4925 10.0625 7.21875 10.0625C7.945 10.0625 8.53125 9.47625 8.53125 8.75C8.53125 8.02375 7.945 7.4375 7.21875 7.4375ZM7.21875 17.9375C6.4925 17.9375 5.90625 18.5325 5.90625 19.25C5.90625 19.9675 6.50125 20.5625 7.21875 20.5625C7.93625 20.5625 8.53125 19.9675 8.53125 19.25C8.53125 18.5325 7.945 17.9375 7.21875 17.9375ZM9.84375 20.125H22.0938V18.375H9.84375V20.125ZM9.84375 14.875H22.0938V13.125H9.84375V14.875ZM9.84375 7.875V9.625H22.0938V7.875H9.84375Z" fill="#98A2B3"/>
</svg>