<svg width="48" height="48" viewBox="0 0 48 48" fill="none" xmlns="http://www.w3.org/2000/svg">
<rect width="48" height="48" rx="6" fill="white"/>
<path d="M24 14C25.3132 14 26.6136 14.2587 27.8268 14.7612C29.0401 15.2638 30.1425 16.0003 31.0711 16.9289C31.9997 17.8575 32.7363 18.9599 33.2388 20.1732C33.7413 21.3864 34 22.6868 34 24M24 14V24M24 14C18.4772 14 14 18.4772 14 24C14 29.5228 18.4772 34 24 34C29.5228 34 34 29.5229 34 24M24 14C29.5228 14 34 18.4772 34 24M34 24L24 24M34 24C34 25.5781 33.6265 27.1338 32.9101 28.5399C32.1936 29.946 31.1546 31.1626 29.8779 32.0902L24 24" stroke="#667085" stroke-width="2" stroke-linecap="round" stroke-linejoin="round"/>
</svg>