<svg width="48" height="48" viewBox="0 0 48 48" fill="none" xmlns="http://www.w3.org/2000/svg">
<rect width="48" height="48" rx="6" fill="white"/>
<path d="M21.3542 33C22.0593 33.6224 22.9855 34 24 34C25.0144 34 25.9407 33.6224 26.6458 33M30 20C30 18.4087 29.3678 16.8826 28.2426 15.7574C27.1174 14.6321 25.5913 14 24 14C22.4087 14 20.8826 14.6321 19.7573 15.7574C18.6321 16.8826 18 18.4087 18 20C18 23.0902 17.2205 25.206 16.3497 26.6054C15.6151 27.7859 15.2478 28.3761 15.2613 28.5408C15.2762 28.7231 15.3148 28.7926 15.4618 28.9016C15.5944 29 16.1926 29 17.3888 29H30.6111C31.8074 29 32.4055 29 32.5382 28.9016C32.6851 28.7926 32.7238 28.7231 32.7387 28.5408C32.7521 28.3761 32.3849 27.7859 31.6503 26.6054C30.7795 25.206 30 23.0902 30 20Z" stroke="#667085" stroke-width="2" stroke-linecap="round" stroke-linejoin="round"/>
</svg>