<svg width="48" height="48" viewBox="0 0 48 48" fill="none" xmlns="http://www.w3.org/2000/svg">
<rect width="48" height="48" rx="6" fill="white"/>
<path d="M14 24L23.6422 28.8211C23.7734 28.8867 23.839 28.9195 23.9078 28.9324C23.9687 28.9438 24.0313 28.9438 24.0922 28.9324C24.161 28.9195 24.2266 28.8867 24.3578 28.8211L34 24M14 29L23.6422 33.8211C23.7734 33.8867 23.839 33.9195 23.9078 33.9324C23.9687 33.9438 24.0313 33.9438 24.0922 33.9324C24.161 33.9195 24.2266 33.8867 24.3578 33.8211L34 29M14 19L23.6422 14.1789C23.7734 14.1133 23.839 14.0805 23.9078 14.0676C23.9687 14.0562 24.0313 14.0562 24.0922 14.0676C24.161 14.0805 24.2266 14.1133 24.3578 14.1789L34 19L24.3578 23.8211C24.2266 23.8867 24.161 23.9195 24.0922 23.9324C24.0313 23.9438 23.9687 23.9438 23.9078 23.9324C23.839 23.9195 23.7734 23.8867 23.6422 23.8211L14 19Z" stroke="#667085" stroke-width="2" stroke-linecap="round" stroke-linejoin="round"/>
</svg>