<svg width="48" height="48" viewBox="0 0 48 48" fill="none" xmlns="http://www.w3.org/2000/svg">
<rect width="48" height="48" rx="6" fill="#F9FAFB"/>
<path d="M24 27C25.6569 27 27 25.6569 27 24C27 22.3431 25.6569 21 24 21C22.3431 21 21 22.3431 21 24C21 25.6569 22.3431 27 24 27Z" stroke="#667085" stroke-width="2" stroke-linecap="round" stroke-linejoin="round"/>
<path d="M30.7273 26.7273C30.6063 27.0015 30.5702 27.3056 30.6236 27.6005C30.6771 27.8954 30.8177 28.1676 31.0273 28.3818L31.0818 28.4364C31.2509 28.6052 31.385 28.8057 31.4765 29.0265C31.568 29.2472 31.6151 29.4838 31.6151 29.7227C31.6151 29.9617 31.568 30.1983 31.4765 30.419C31.385 30.6397 31.2509 30.8402 31.0818 31.0091C30.913 31.1781 30.7124 31.3122 30.4917 31.4037C30.271 31.4952 30.0344 31.5423 29.7955 31.5423C29.5565 31.5423 29.3199 31.4952 29.0992 31.4037C28.8785 31.3122 28.678 31.1781 28.5091 31.0091L28.4545 30.9545C28.2403 30.745 27.9682 30.6044 27.6733 30.5509C27.3784 30.4974 27.0742 30.5335 26.8 30.6545C26.5311 30.7698 26.3018 30.9611 26.1403 31.205C25.9788 31.4489 25.8921 31.7347 25.8909 32.0273V32.1818C25.8909 32.664 25.6994 33.1265 25.3584 33.4675C25.0174 33.8084 24.5549 34 24.0727 34C23.5905 34 23.1281 33.8084 22.7871 33.4675C22.4461 33.1265 22.2545 32.664 22.2545 32.1818V32.1C22.2475 31.7991 22.1501 31.5073 21.975 31.2625C21.7999 31.0176 21.5552 30.8312 21.2727 30.7273C20.9985 30.6063 20.6944 30.5702 20.3995 30.6236C20.1046 30.6771 19.8324 30.8177 19.6182 31.0273L19.5636 31.0818C19.3948 31.2509 19.1943 31.385 18.9735 31.4765C18.7528 31.568 18.5162 31.6151 18.2773 31.6151C18.0383 31.6151 17.8017 31.568 17.581 31.4765C17.3603 31.385 17.1598 31.2509 16.9909 31.0818C16.8219 30.913 16.6878 30.7124 16.5963 30.4917C16.5048 30.271 16.4577 30.0344 16.4577 29.7955C16.4577 29.5565 16.5048 29.3199 16.5963 29.0992C16.6878 28.8785 16.8219 28.678 16.9909 28.5091L17.0455 28.4545C17.255 28.2403 17.3956 27.9682 17.4491 27.6733C17.5026 27.3784 17.4665 27.0742 17.3455 26.8C17.2302 26.5311 17.0389 26.3018 16.795 26.1403C16.5511 25.9788 16.2653 25.8921 15.9727 25.8909H15.8182C15.336 25.8909 14.8735 25.6994 14.5325 25.3584C14.1916 25.0174 14 24.5549 14 24.0727C14 23.5905 14.1916 23.1281 14.5325 22.7871C14.8735 22.4461 15.336 22.2545 15.8182 22.2545H15.9C16.2009 22.2475 16.4927 22.1501 16.7375 21.975C16.9824 21.7999 17.1688 21.5552 17.2727 21.2727C17.3937 20.9985 17.4298 20.6944 17.3764 20.3995C17.3229 20.1046 17.1823 19.8324 16.9727 19.6182L16.9182 19.5636C16.7491 19.3948 16.615 19.1943 16.5235 18.9735C16.432 18.7528 16.3849 18.5162 16.3849 18.2773C16.3849 18.0383 16.432 17.8017 16.5235 17.581C16.615 17.3603 16.7491 17.1598 16.9182 16.9909C17.087 16.8219 17.2876 16.6878 17.5083 16.5963C17.729 16.5048 17.9656 16.4577 18.2045 16.4577C18.4435 16.4577 18.6801 16.5048 18.9008 16.5963C19.1215 16.6878 19.322 16.8219 19.4909 16.9909L19.5455 17.0455C19.7597 17.255 20.0318 17.3956 20.3267 17.4491C20.6216 17.5026 20.9258 17.4665 21.2 17.3455H21.2727C21.5416 17.2302 21.7709 17.0389 21.9324 16.795C22.094 16.5511 22.1807 16.2653 22.1818 15.9727V15.8182C22.1818 15.336 22.3734 14.8735 22.7144 14.5325C23.0553 14.1916 23.5178 14 24 14C24.4822 14 24.9447 14.1916 25.2856 14.5325C25.6266 14.8735 25.8182 15.336 25.8182 15.8182V15.9C25.8193 16.1925 25.906 16.4783 26.0676 16.7222C26.2291 16.9661 26.4584 17.1575 26.7273 17.2727C27.0015 17.3937 27.3056 17.4298 27.6005 17.3764C27.8954 17.3229 28.1676 17.1823 28.3818 16.9727L28.4364 16.9182C28.6052 16.7491 28.8057 16.615 29.0265 16.5235C29.2472 16.432 29.4838 16.3849 29.7227 16.3849C29.9617 16.3849 30.1983 16.432 30.419 16.5235C30.6397 16.615 30.8402 16.7491 31.0091 16.9182C31.1781 17.087 31.3122 17.2876 31.4037 17.5083C31.4952 17.729 31.5423 17.9656 31.5423 18.2045C31.5423 18.4435 31.4952 18.6801 31.4037 18.9008C31.3122 19.1215 31.1781 19.322 31.0091 19.4909L30.9545 19.5455C30.745 19.7597 30.6044 20.0318 30.5509 20.3267C30.4974 20.6216 30.5335 20.9258 30.6545 21.2V21.2727C30.7698 21.5416 30.9611 21.7709 31.205 21.9324C31.4489 22.094 31.7347 22.1807 32.0273 22.1818H32.1818C32.664 22.1818 33.1265 22.3734 33.4675 22.7144C33.8084 23.0553 34 23.5178 34 24C34 24.4822 33.8084 24.9447 33.4675 25.2856C33.1265 25.6266 32.664 25.8182 32.1818 25.8182H32.1C31.8075 25.8193 31.5217 25.906 31.2778 26.0676C31.0339 26.2291 30.8425 26.4584 30.7273 26.7273Z" stroke="#667085" stroke-width="2" stroke-linecap="round" stroke-linejoin="round"/>
</svg>