<svg width="48" height="48" viewBox="0 0 48 48" fill="none" xmlns="http://www.w3.org/2000/svg">
<rect width="48" height="48" rx="6" fill="white"/>
<path d="M20 29H28M23.0177 14.764L16.2354 20.0391C15.782 20.3918 15.5553 20.5681 15.392 20.7889C15.2474 20.9845 15.1396 21.2048 15.074 21.4391C15 21.7035 15 21.9907 15 22.5651V29.8C15 30.9201 15 31.4802 15.218 31.908C15.4097 32.2843 15.7157 32.5903 16.092 32.782C16.5198 33 17.0799 33 18.2 33H29.8C30.9201 33 31.4802 33 31.908 32.782C32.2843 32.5903 32.5903 32.2843 32.782 31.908C33 31.4802 33 30.9201 33 29.8V22.5651C33 21.9907 33 21.7035 32.926 21.4391C32.8604 21.2048 32.7526 20.9845 32.608 20.7889C32.4447 20.5681 32.218 20.3918 31.7646 20.0391L24.9823 14.764C24.631 14.4908 24.4553 14.3541 24.2613 14.3016C24.0902 14.2553 23.9098 14.2553 23.7387 14.3016C23.5447 14.3541 23.369 14.4908 23.0177 14.764Z" stroke="#667085" stroke-width="2" stroke-linecap="round" stroke-linejoin="round"/>
</svg>